<svg width="27" height="29" viewBox="0 0 27 29" fill="none" xmlns="http://www.w3.org/2000/svg">
<path d="M27 21.75C25.3113 21.75 25.116 19.9375 22.51 19.9375C19.8926 19.9375 19.688 21.75 18.005 21.75C16.3359 21.75 16.1094 19.9375 13.5 19.9375C10.918 19.9375 10.6543 21.75 9.01005 21.75C7.31362 21.75 7.12957 19.9375 4.50502 19.9375C1.88054 19.9375 1.69335 21.75 0 21.75V17.2188C0 15.7178 1.29576 14.5 2.89286 14.5H3.85714V6.34375H7.71429V14.5H11.5714V6.34375H15.4286V14.5H19.2857V6.34375H23.1429V14.5H24.1071C25.7042 14.5 27 15.7178 27 17.2188V21.75ZM27 29H0V23.5625C2.61297 23.5625 2.81855 21.75 4.50502 21.75C6.18957 21.75 6.38857 23.5625 9.01005 23.5625C11.5921 23.5625 11.8557 21.75 13.5 21.75C15.1964 21.75 15.3804 23.5625 18.005 23.5625C20.6181 23.5625 20.8236 21.75 22.51 21.75C24.1667 21.75 24.3935 23.5625 27 23.5625V29ZM5.78571 5.4375C4.71596 5.4375 3.85714 4.63037 3.85714 3.625C3.85714 1.86914 5.78571 2.32227 5.78571 0C6.50893 0 7.71429 1.6709 7.71429 3.17188C7.71429 4.67285 6.85547 5.4375 5.78571 5.4375ZM13.5 5.4375C12.4302 5.4375 11.5714 4.63037 11.5714 3.625C11.5714 1.86914 13.5 2.32227 13.5 0C14.2232 0 15.4286 1.6709 15.4286 3.17188C15.4286 4.67285 14.5698 5.4375 13.5 5.4375ZM21.2143 5.4375C20.1445 5.4375 19.2857 4.63037 19.2857 3.625C19.2857 1.86914 21.2143 2.32227 21.2143 0C21.9375 0 23.1429 1.6709 23.1429 3.17188C23.1429 4.67285 22.284 5.4375 21.2143 5.4375Z" fill="#FA8E2B"/>
</svg>
