<svg width="17" height="17" viewBox="0 0 17 17" fill="none" xmlns="http://www.w3.org/2000/svg">
<path d="M0 15.0495C0 15.8747 0.815848 16.5442 1.82143 16.5442H15.1786C16.1842 16.5442 17 15.8747 17 15.0495V6.57974H0V15.0495ZM12.1429 8.9463C12.1429 8.74078 12.3478 8.57263 12.5982 8.57263H14.1161C14.3665 8.57263 14.5714 8.74078 14.5714 8.9463V10.1919C14.5714 10.3974 14.3665 10.5655 14.1161 10.5655H12.5982C12.3478 10.5655 12.1429 10.3974 12.1429 10.1919V8.9463ZM12.1429 12.9321C12.1429 12.7266 12.3478 12.5584 12.5982 12.5584H14.1161C14.3665 12.5584 14.5714 12.7266 14.5714 12.9321V14.1776C14.5714 14.3832 14.3665 14.5513 14.1161 14.5513H12.5982C12.3478 14.5513 12.1429 14.3832 12.1429 14.1776V12.9321ZM7.28571 8.9463C7.28571 8.74078 7.49062 8.57263 7.74107 8.57263H9.25893C9.50938 8.57263 9.71429 8.74078 9.71429 8.9463V10.1919C9.71429 10.3974 9.50938 10.5655 9.25893 10.5655H7.74107C7.49062 10.5655 7.28571 10.3974 7.28571 10.1919V8.9463ZM7.28571 12.9321C7.28571 12.7266 7.49062 12.5584 7.74107 12.5584H9.25893C9.50938 12.5584 9.71429 12.7266 9.71429 12.9321V14.1776C9.71429 14.3832 9.50938 14.5513 9.25893 14.5513H7.74107C7.49062 14.5513 7.28571 14.3832 7.28571 14.1776V12.9321ZM2.42857 8.9463C2.42857 8.74078 2.63348 8.57263 2.88393 8.57263H4.40179C4.65223 8.57263 4.85714 8.74078 4.85714 8.9463V10.1919C4.85714 10.3974 4.65223 10.5655 4.40179 10.5655H2.88393C2.63348 10.5655 2.42857 10.3974 2.42857 10.1919V8.9463ZM2.42857 12.9321C2.42857 12.7266 2.63348 12.5584 2.88393 12.5584H4.40179C4.65223 12.5584 4.85714 12.7266 4.85714 12.9321V14.1776C4.85714 14.3832 4.65223 14.5513 4.40179 14.5513H2.88393C2.63348 14.5513 2.42857 14.3832 2.42857 14.1776V12.9321ZM15.1786 2.59396H13.3571V1.0993C13.3571 0.825274 13.0839 0.601074 12.75 0.601074H11.5357C11.2018 0.601074 10.9286 0.825274 10.9286 1.0993V2.59396H6.07143V1.0993C6.07143 0.825274 5.79821 0.601074 5.46429 0.601074H4.25C3.91607 0.601074 3.64286 0.825274 3.64286 1.0993V2.59396H1.82143C0.815848 2.59396 0 3.26345 0 4.08863V5.5833H17V4.08863C17 3.26345 16.1842 2.59396 15.1786 2.59396Z" fill="#201B22"/>
</svg>
