<svg width="70" height="70" viewBox="0 0 70 70" fill="none" xmlns="http://www.w3.org/2000/svg">
<g filter="url(#filter0_d)">
<path d="M45 14H25C20.5817 14 17 17.5817 17 22V42C17 46.4183 20.5822 50 25.0004 50H44.9978C49.416 50 53 46.4183 53 42V22C53 17.5817 49.4183 14 45 14Z" fill="white"/>
<path d="M45 14H25C20.5817 14 17 17.5817 17 22V42C17 46.4183 20.5822 50 25.0004 50H44.9978C49.416 50 53 46.4183 53 42V22C53 17.5817 49.4183 14 45 14Z" stroke="#FA8E2B" stroke-width="4"/>
</g>
<path d="M31.4722 40.5456L24.3222 32.7456C23.8926 32.277 23.8926 31.5172 24.3222 31.0485L25.8778 29.3515C26.3073 28.8828 27.0038 28.8828 27.4334 29.3515L32.25 34.6059L42.5666 23.3515C42.9961 22.8828 43.6927 22.8828 44.1222 23.3515L45.6778 25.0485C46.1074 25.5171 46.1074 26.2769 45.6778 26.7456L33.0278 40.5456C32.5982 41.0142 31.9017 41.0142 31.4722 40.5456Z" fill="black"/>
<defs>
<filter id="filter0_d" x="0" y="0" width="70" height="70" filterUnits="userSpaceOnUse" color-interpolation-filters="sRGB">
<feFlood flood-opacity="0" result="BackgroundImageFix"/>
<feColorMatrix in="SourceAlpha" type="matrix" values="0 0 0 0 0 0 0 0 0 0 0 0 0 0 0 0 0 0 127 0"/>
<feOffset dy="3"/>
<feGaussianBlur stdDeviation="7.5"/>
<feColorMatrix type="matrix" values="0 0 0 0 0 0 0 0 0 0 0 0 0 0 0 0 0 0 0.28 0"/>
<feBlend mode="normal" in2="BackgroundImageFix" result="effect1_dropShadow"/>
<feBlend mode="normal" in="SourceGraphic" in2="effect1_dropShadow" result="shape"/>
</filter>
</defs>
</svg>
