<svg width="1070" height="465" viewBox="0 0 1070 465" fill="none" xmlns="http://www.w3.org/2000/svg">
<circle cx="10" cy="455" r="10" fill="black"/>
<line x1="12.5311" y1="449.21" x2="15.5311" y2="434.696" stroke="black" stroke-width="3"/>
<line x1="18.5187" y1="418.764" x2="20.9074" y2="403.764" stroke="black" stroke-width="3"/>
<line x1="29.9745" y1="384.99" x2="35.6294" y2="370.893" stroke="black" stroke-width="3"/>
<line x1="42.791" y1="354.927" x2="50.2506" y2="341.696" stroke="black" stroke-width="3"/>
<line x1="60.6934" y1="328.495" x2="68.153" y2="315.263" stroke="black" stroke-width="3"/>
<line x1="79.5168" y1="301.234" x2="89.7202" y2="289.982" stroke="black" stroke-width="3"/>
<line x1="101.889" y1="278.244" x2="112.092" y2="266.992" stroke="black" stroke-width="3"/>
<line x1="126.08" y1="254.885" x2="138.357" y2="245.942" stroke="black" stroke-width="3"/>
<line x1="153.117" y1="232.731" x2="165.394" y2="223.788" stroke="black" stroke-width="3"/>
<line x1="179.73" y1="218.716" x2="193.137" y2="211.579" stroke="black" stroke-width="3"/>
<line x1="212.898" y1="206.538" x2="228.052" y2="205.503" stroke="black" stroke-width="3"/>
<line x1="244.898" y1="201.538" x2="260.052" y2="200.503" stroke="black" stroke-width="3"/>
<line x1="277.898" y1="197.538" x2="293.052" y2="196.503" stroke="black" stroke-width="3"/>
<line x1="308.898" y1="196.538" x2="324.052" y2="195.503" stroke="black" stroke-width="3"/>
<line x1="343.898" y1="196.538" x2="359.052" y2="195.503" stroke="black" stroke-width="3"/>
<line x1="378.898" y1="196.538" x2="394.052" y2="195.503" stroke="black" stroke-width="3"/>
<line x1="409.898" y1="196.538" x2="425.052" y2="195.503" stroke="black" stroke-width="3"/>
<line x1="440.898" y1="195.538" x2="456.052" y2="194.503" stroke="black" stroke-width="3"/>
<line x1="474.897" y1="194.538" x2="490.051" y2="193.503" stroke="black" stroke-width="3"/>
<line x1="509.641" y1="193.178" x2="524.388" y2="189.544" stroke="black" stroke-width="3"/>
<line x1="540.641" y1="189.178" x2="555.389" y2="185.544" stroke="black" stroke-width="3"/>
<line x1="573.641" y1="182.178" x2="588.389" y2="178.544" stroke="black" stroke-width="3"/>
<line x1="604.861" y1="172.682" x2="618.614" y2="166.236" stroke="black" stroke-width="3"/>
<line x1="630.012" y1="157.875" x2="641.442" y2="147.871" stroke="black" stroke-width="3"/>
<line x1="649.706" y1="136.347" x2="657.385" y2="123.242" stroke="black" stroke-width="3"/>
<line x1="488.982" y1="132.042" x2="481.684" y2="118.721" stroke="black" stroke-width="3"/>
<line x1="473.974" y1="102.372" x2="472.34" y2="87.2715" stroke="black" stroke-width="3"/>
<line x1="473.522" y1="72.6957" x2="476.168" y2="57.7387" stroke="black" stroke-width="3"/>
<line x1="480.08" y1="46.1741" x2="488.006" y2="33.2172" stroke="black" stroke-width="3"/>
<line x1="499.007" y1="21.9263" x2="510.395" y2="11.8754" stroke="black" stroke-width="3"/>
<line x1="519.679" y1="6.78162" x2="534.517" y2="3.53467" stroke="black" stroke-width="3"/>
<line x1="546.923" y1="2.27771" x2="562.093" y2="1.50199" stroke="black" stroke-width="3"/>
<line x1="574.011" y1="2.35673" x2="589.134" y2="3.7708" stroke="black" stroke-width="3"/>
<line x1="601.498" y1="6.58492" x2="615.827" y2="11.6231" stroke="black" stroke-width="3"/>
<line x1="626.997" y1="16.8789" x2="638.349" y2="26.9706" stroke="black" stroke-width="3"/>
<line x1="646.263" y1="39.19" x2="654.464" y2="51.9743" stroke="black" stroke-width="3"/>
<line x1="658.475" y1="64.7289" x2="661.22" y2="79.6679" stroke="black" stroke-width="3"/>
<line x1="661.887" y1="94.1376" x2="660.493" y2="109.263" stroke="black" stroke-width="3"/>
<line x1="508.982" y1="166.042" x2="501.684" y2="152.721" stroke="black" stroke-width="3"/>
<line x1="545.552" y1="223.904" x2="534.928" y2="213.049" stroke="black" stroke-width="3"/>
<line x1="572.552" y1="252.904" x2="561.928" y2="242.049" stroke="black" stroke-width="3"/>
<line x1="598.552" y1="274.904" x2="587.928" y2="264.049" stroke="black" stroke-width="3"/>
<line x1="648.731" y1="305.419" x2="635.299" y2="298.327" stroke="black" stroke-width="3"/>
<line x1="622.731" y1="290.419" x2="609.299" y2="283.326" stroke="black" stroke-width="3"/>
<line x1="676.603" y1="314.441" x2="661.707" y2="311.471" stroke="black" stroke-width="3"/>
<line x1="705.178" y1="315.607" x2="689.989" y2="315.5" stroke="black" stroke-width="3"/>
<line x1="736.258" y1="311.488" x2="721.187" y2="313.38" stroke="black" stroke-width="3"/>
<line x1="762.028" y1="305.444" x2="747.406" y2="309.553" stroke="black" stroke-width="3"/>
<line x1="790.879" y1="297.422" x2="776.476" y2="302.246" stroke="black" stroke-width="3"/>
<line x1="823.171" y1="297.672" x2="807.983" y2="297.5" stroke="black" stroke-width="3"/>
<line x1="857.196" y1="299.463" x2="842.007" y2="299.536" stroke="black" stroke-width="3"/>
<line x1="889.82" y1="302.649" x2="874.786" y2="300.485" stroke="black" stroke-width="3"/>
<line x1="918.82" y1="306.649" x2="903.786" y2="304.485" stroke="black" stroke-width="3"/>
<line x1="946.82" y1="311.649" x2="931.786" y2="309.485" stroke="black" stroke-width="3"/>
<line x1="974.82" y1="316.649" x2="959.786" y2="314.485" stroke="black" stroke-width="3"/>
<line x1="1007.82" y1="322.649" x2="992.786" y2="320.485" stroke="black" stroke-width="3"/>
<line x1="1037.82" y1="328.649" x2="1022.79" y2="326.485" stroke="black" stroke-width="3"/>
<line x1="1068.82" y1="333.649" x2="1053.79" y2="331.485" stroke="black" stroke-width="3"/>
</svg>
