<svg width="494" height="621" viewBox="0 0 494 621" fill="none" xmlns="http://www.w3.org/2000/svg">
<line x1="93.063" y1="417.495" x2="78.063" y2="405.495" stroke="black" stroke-width="3"/>
<line x1="69.5223" y1="394.644" x2="55.9393" y2="381.061" stroke="black" stroke-width="3"/>
<line x1="44.7991" y1="365.957" x2="32.827" y2="350.935" stroke="black" stroke-width="3"/>
<line x1="22.7708" y1="330.707" x2="15.6085" y2="312.883" stroke="black" stroke-width="3"/>
<line x1="7.98607" y1="294.624" x2="4.13178" y2="275.805" stroke="black" stroke-width="3"/>
<line x1="1.99806" y1="255.566" x2="1.5004" y2="236.363" stroke="black" stroke-width="3"/>
<line x1="3.50691" y1="216.301" x2="5.34863" y2="197.18" stroke="black" stroke-width="3"/>
<line x1="11.5461" y1="177.573" x2="16.2734" y2="158.955" stroke="black" stroke-width="3"/>
<line x1="22.9932" y1="142.736" x2="31.0075" y2="125.278" stroke="black" stroke-width="3"/>
<line x1="40.9425" y1="110.65" x2="50.4663" y2="93.9679" stroke="black" stroke-width="3"/>
<line x1="64.4461" y1="79.0663" x2="76.7776" y2="64.3377" stroke="black" stroke-width="3"/>
<line x1="92.9932" y1="52.9515" x2="107.345" y2="40.1834" stroke="black" stroke-width="3"/>
<line x1="123.329" y1="31.7355" x2="139.374" y2="21.1744" stroke="black" stroke-width="3"/>
<line x1="156.567" y1="15.86" x2="174.341" y2="8.57297" stroke="black" stroke-width="3"/>
<line x1="193.892" y1="5.03768" x2="212.982" y2="2.89891" stroke="black" stroke-width="3"/>
<line x1="231.887" y1="2.28766" x2="251.08" y2="1.50125" stroke="black" stroke-width="3"/>
<line x1="270.258" y1="3.01622" x2="289.314" y2="5.44185" stroke="black" stroke-width="3"/>
<line x1="309.488" y1="10.9607" x2="328.227" y2="15.186" stroke="black" stroke-width="3"/>
<line x1="343.802" y1="25.3351" x2="360.438" y2="34.9397" stroke="black" stroke-width="3"/>
<line x1="374.32" y1="44.4757" x2="388.363" y2="57.5836" stroke="black" stroke-width="3"/>
<line x1="398.758" y1="68.6591" x2="411.708" y2="82.8477" stroke="black" stroke-width="3"/>
<rect x="94" y="85.1219" width="392.126" height="535.443" rx="100" transform="rotate(-0.74841 94 85.1219)" fill="#C2DBDF"/>
</svg>
