<svg width="321" height="326" viewBox="0 0 321 326" fill="none" xmlns="http://www.w3.org/2000/svg">
<g filter="url(#filter0_d)">
<path d="M15.8778 187.602L304.728 187.602L304.728 34.2637C200.657 10.2076 134.816 3.04016 15.8779 34.2636L15.8778 187.602Z" fill="white"/>
<path d="M15.8778 187.602L304.728 187.602L304.728 34.2637C200.657 10.2076 134.816 3.04016 15.8779 34.2636L15.8778 187.602Z" stroke="white"/>
</g>
<g filter="url(#filter1_d)">
<path d="M304.728 187.603H15.8779V292.908C119.949 309.428 185.79 314.35 304.728 292.908V187.603Z" fill="white"/>
<path d="M304.728 187.603H15.8779V292.908C119.949 309.428 185.79 314.35 304.728 292.908V187.603Z" stroke="white"/>
</g>
<rect x="15.8779" y="74.2969" width="288.85" height="197.235" fill="white"/>
<path d="M110.784 110.383C112.614 106.523 118.25 99.6447 126.154 103.013C133.84 104.066 141.525 103.54 145.367 109.856C150.857 110.734 162.055 112.383 162.934 111.962C163.812 111.541 163.3 120.559 162.934 125.121C160.006 127.753 152.394 131.753 145.367 126.7" stroke="#56BED1"/>
<path d="M150.832 129.698C150.453 132.371 145.736 131.084 141.525 135.123C147.361 141.518 149.082 147.307 150.534 156.177L166.227 131.438C166.41 128.104 168.972 119.542 177.755 111.963C180.5 112.489 183.337 115.729 181.049 126.701C178.853 137.228 172.815 138.807 171.168 138.281C169.887 140.562 166.776 151.124 164.58 175.126C164.214 178.635 160.957 185.969 150.857 187.233C151.406 191.268 151.406 200.287 147.014 204.076C148.844 216.358 153.492 241.027 157.444 241.448C162.385 241.975 172.815 239.869 171.717 251.449C169.704 251.976 162.934 252.712 151.955 251.449C150.857 250.747 148.99 248.817 150.308 246.712C148.478 246.536 144.599 245.238 143.721 241.448C142.842 237.658 136.767 223.727 133.84 217.236C127.984 221.271 115.615 229.447 112.98 229.868C114.078 240.922 109.137 243.027 105.295 250.396C117.371 253.028 128.68 246.186 129.997 250.396C135.852 255.66 139.549 265.029 107.49 260.397C98.5242 262.678 77.518 265.661 65.2216 259.345C63.2088 259.696 57.9756 259.029 53.1449 253.555C50.0342 253.555 46.2282 255.765 55.8896 264.608C55.8896 266.187 55.3407 269.556 53.1449 270.398C50.4001 271.451 58.0853 266.714 42.166 263.029C37.5914 260.573 31.8458 253.449 45.4596 244.606C47.2894 243.729 52.3762 242.922 58.0853 246.712C55.8895 242.326 55.0112 230.079 69.0641 216.183C83.1171 202.287 95.7794 176.705 100.354 165.652C103.099 157.054 107.929 138.176 105.294 131.438C102.659 124.701 107.856 114.594 110.784 110.383C112.614 106.348 118.249 98.5098 126.154 102.721C131.929 102.721 143.72 103.247 145.916 109.563C150.857 110.09 161.287 111.963 163.482 111.963C165.678 111.963 164.031 121.086 162.934 125.648C159.914 127.43 154.758 129.748 150.832 129.698Z" fill="#5AC5D9"/>
<path d="M150.857 129.333C150.857 132.491 145.916 130.912 141.525 135.123C147.361 141.518 149.082 147.307 150.534 156.177M151.955 165.652C151.427 162.106 150.994 158.987 150.534 156.177M150.534 156.177L166.227 131.438C166.41 128.104 168.972 119.542 177.755 111.963C180.5 112.489 183.337 115.729 181.049 126.701C178.853 137.228 172.815 138.807 171.168 138.281C169.887 140.562 166.776 151.124 164.58 175.126C164.214 178.635 160.957 185.969 150.857 187.233C151.406 191.268 151.406 200.287 147.014 204.076C148.844 216.358 153.492 241.027 157.444 241.448C162.385 241.975 172.815 239.869 171.717 251.449C169.704 251.976 162.934 252.712 151.955 251.449C150.857 250.747 148.99 248.817 150.308 246.712C148.478 246.536 144.599 245.238 143.721 241.448C142.842 237.658 136.767 223.727 133.84 217.236C127.984 221.271 115.615 229.447 112.98 229.868C114.078 240.922 109.137 243.027 105.295 250.396C117.371 253.028 128.68 246.186 129.997 250.396C135.852 255.66 139.549 265.029 107.49 260.397C98.5242 262.678 77.518 265.661 65.2216 259.345C63.2088 259.696 57.9756 259.029 53.1449 253.555C50.0342 253.555 46.2282 255.765 55.8896 264.608C55.8896 266.187 55.3407 269.556 53.1449 270.398C50.4001 271.451 58.0853 266.714 42.166 263.029C37.5914 260.573 31.8458 253.449 45.4596 244.606C47.2894 243.729 52.3762 242.922 58.0853 246.712C55.8895 242.326 55.0112 230.079 69.0641 216.183C83.1171 202.287 95.7794 176.705 100.354 165.652C103.099 157.054 107.929 138.176 105.294 131.438C102.659 124.701 107.856 114.594 110.784 110.383M110.784 110.383C110.052 113.191 109.027 120.911 110.784 129.333C112.54 137.754 121.763 145.474 126.154 148.282C128.716 149.685 134.608 150.177 137.682 140.913C140.756 131.649 132.742 123.718 128.35 120.911C125.056 118.805 118.798 113.752 120.116 110.383C121.433 107.015 124.69 106.523 126.154 106.699C126.886 105.822 128.35 104.826 126.154 102.721M110.784 110.383C112.614 106.348 118.249 98.5098 126.154 102.721M126.154 102.721C131.929 102.721 143.72 103.247 145.916 109.563C150.857 110.09 161.287 111.963 163.482 111.963C165.678 111.963 164.031 121.086 162.934 125.648C158.176 128.455 148.112 132.596 145.916 126.701" stroke="#56BED1"/>
<path d="M206.717 87.7579C204.699 87.8646 201.644 86.4465 204.652 79.8532C207.727 73.1158 224.232 73.8878 232.1 75.1159C234.478 77.2214 239.785 82.064 241.981 84.5905C244.725 87.7487 244.176 94.5915 241.981 96.1706C239.785 97.7496 239.785 105.119 239.236 107.224C238.797 108.909 242.347 112.137 244.176 113.541C248.202 112.488 257.351 113.435 261.743 125.647C264.121 130.735 268.879 143.859 268.879 155.65C268.879 167.44 275.1 184.775 278.211 191.969L279.858 206.707H278.211C278.394 213.199 275.905 226.393 264.487 227.235C264.487 230.043 262.841 236.289 256.253 238.815C255.155 242.675 252.52 250.395 250.764 250.395C249.007 250.395 250.032 255.308 250.764 257.764C245.274 259.168 232.481 260.923 224.963 260.923C215.083 260.923 198.065 266.186 203.006 254.08C207.031 253.203 216.62 249.448 222.768 241.447C222.585 240.921 222.109 239.447 221.67 237.763C221.121 235.657 189.831 250.395 180.499 238.815C173.034 229.551 174.461 225.832 176.108 225.13L195.87 206.707L188.184 191.969C185.623 185.126 186.428 172.283 210.142 175.652L224.963 177.757V169.335C221.487 171.616 209.483 166.304 187.087 125.88C182.432 122.195 185.176 118.743 185.176 106.931C187.372 105.878 188.58 112.089 189.019 113.773C189.458 115.458 190.117 93.7714 195.057 94.8241C196.887 98.6841 200.591 109.224 197.516 123.542C199.163 128.805 205.751 140.49 218.925 145.122C216.913 139.332 215.522 126.594 226.062 121.962C226.61 120.208 227.159 116.383 224.963 115.12C222.219 113.541 215.083 120.91 207.946 103.54C206.507 98.366 204.29 88.1072 206.717 87.7579Z" fill="#5AC5D9" stroke="#56BED1"/>
<defs>
<filter id="filter0_d" x="0.37793" y="0.947266" width="319.85" height="205.155" filterUnits="userSpaceOnUse" color-interpolation-filters="sRGB">
<feFlood flood-opacity="0" result="BackgroundImageFix"/>
<feColorMatrix in="SourceAlpha" type="matrix" values="0 0 0 0 0 0 0 0 0 0 0 0 0 0 0 0 0 0 127 0"/>
<feOffset dy="3"/>
<feGaussianBlur stdDeviation="7.5"/>
<feColorMatrix type="matrix" values="0 0 0 0 0 0 0 0 0 0 0 0 0 0 0 0 0 0 0.28 0"/>
<feBlend mode="normal" in2="BackgroundImageFix" result="effect1_dropShadow"/>
<feBlend mode="normal" in="SourceGraphic" in2="effect1_dropShadow" result="shape"/>
</filter>
<filter id="filter1_d" x="0.37793" y="175.103" width="319.85" height="150.6" filterUnits="userSpaceOnUse" color-interpolation-filters="sRGB">
<feFlood flood-opacity="0" result="BackgroundImageFix"/>
<feColorMatrix in="SourceAlpha" type="matrix" values="0 0 0 0 0 0 0 0 0 0 0 0 0 0 0 0 0 0 127 0"/>
<feOffset dy="3"/>
<feGaussianBlur stdDeviation="7.5"/>
<feColorMatrix type="matrix" values="0 0 0 0 0 0 0 0 0 0 0 0 0 0 0 0 0 0 0.28 0"/>
<feBlend mode="normal" in2="BackgroundImageFix" result="effect1_dropShadow"/>
<feBlend mode="normal" in="SourceGraphic" in2="effect1_dropShadow" result="shape"/>
</filter>
</defs>
</svg>
