<svg width="27" height="28" viewBox="0 0 27 28" fill="none" xmlns="http://www.w3.org/2000/svg">
<path d="M26.1562 0H20.6016C19.8492 0 19.4766 0.940625 20.0039 1.49479L21.1922 2.72708L15.518 8.61146C13.957 7.59063 12.1078 7 10.125 7C4.53516 7 0 11.7031 0 17.5C0 23.2969 4.53516 28 10.125 28C15.7148 28 20.25 23.2969 20.25 17.5C20.25 15.4437 19.6805 13.526 18.6961 11.9073L24.3703 6.02292L25.5586 7.25521C26.093 7.80937 27 7.41562 27 6.63542V0.875C27 0.39375 26.6203 0 26.1562 0ZM10.125 23.3333C7.02422 23.3333 4.5 20.7156 4.5 17.5C4.5 14.2844 7.02422 11.6667 10.125 11.6667C13.2258 11.6667 15.75 14.2844 15.75 17.5C15.75 20.7156 13.2258 23.3333 10.125 23.3333Z" fill="#FA8E2B"/>
</svg>
