<svg width="17" height="17" viewBox="0 0 17 17" fill="none" xmlns="http://www.w3.org/2000/svg">
<path d="M8.27461 4.88997L2.83356 10.2945V16.1276C2.83356 16.2786 2.88331 16.4234 2.97186 16.5302C3.06041 16.637 3.18051 16.697 3.30574 16.697L6.61281 16.6867C6.73764 16.6859 6.85713 16.6256 6.94518 16.5189C7.03322 16.4122 7.08264 16.2678 7.08264 16.1172V12.7108C7.08264 12.5598 7.13239 12.4149 7.22094 12.3081C7.30949 12.2013 7.42959 12.1413 7.55483 12.1413H9.44357C9.5688 12.1413 9.6889 12.2013 9.77745 12.3081C9.86601 12.4149 9.91576 12.5598 9.91576 12.7108V16.1147C9.91556 16.1897 9.92763 16.2639 9.95127 16.3332C9.97492 16.4025 10.0097 16.4655 10.0535 16.5186C10.0974 16.5716 10.1495 16.6137 10.2069 16.6425C10.2643 16.6712 10.3258 16.686 10.3879 16.686L13.6938 16.697C13.8191 16.697 13.9392 16.637 14.0277 16.5302C14.1163 16.4234 14.166 16.2786 14.166 16.1276V10.2906L8.72614 4.88997C8.66219 4.8278 8.58252 4.7939 8.50038 4.7939C8.41823 4.7939 8.33857 4.8278 8.27461 4.88997ZM16.8693 8.56335L14.4021 6.11075V1.181C14.4021 1.06773 14.3648 0.959096 14.2984 0.879C14.232 0.798904 14.1419 0.753906 14.048 0.753906H12.3953C12.3014 0.753906 12.2113 0.798904 12.1449 0.879C12.0785 0.959096 12.0412 1.06773 12.0412 1.181V3.76528L9.39901 1.14363C9.14545 0.891993 8.82727 0.754409 8.4989 0.754409C8.17053 0.754409 7.85236 0.891993 7.5988 1.14363L0.128523 8.56335C0.0926624 8.59909 0.0629937 8.64301 0.0412118 8.69259C0.0194298 8.74217 0.00596157 8.79643 0.00157656 8.85229C-0.00280846 8.90815 0.0019757 8.9645 0.0156557 9.01813C0.0293357 9.07176 0.0516433 9.12161 0.0813041 9.16484L0.83385 10.2682C0.86343 10.3115 0.899814 10.3475 0.940918 10.3739C0.982022 10.4003 1.02704 10.4166 1.07339 10.422C1.11975 10.4274 1.16653 10.4217 1.21106 10.4053C1.25558 10.3888 1.29699 10.3619 1.33289 10.3262L8.27461 3.43073C8.33857 3.36856 8.41823 3.33466 8.50038 3.33466C8.58252 3.33466 8.66219 3.36856 8.72614 3.43073L15.6682 10.3262C15.704 10.362 15.7453 10.3889 15.7898 10.4054C15.8343 10.4219 15.881 10.4276 15.9273 10.4223C15.9736 10.417 16.0186 10.4008 16.0597 10.3745C16.1009 10.3483 16.1373 10.3125 16.1669 10.2692L16.9195 9.1659C16.9491 9.12243 16.9713 9.07232 16.9848 9.01846C16.9983 8.9646 17.0029 8.90804 16.9982 8.85205C16.9936 8.79605 16.9798 8.74172 16.9576 8.69218C16.9355 8.64263 16.9055 8.59885 16.8693 8.56335Z" fill="#201B22"/>
</svg>
