<?xml version="1.0" standalone="no"?>
<!DOCTYPE svg PUBLIC "-//W3C//DTD SVG 20010904//EN"
 "http://www.w3.org/TR/2001/REC-SVG-20010904/DTD/svg10.dtd">
<svg version="1.0" xmlns="http://www.w3.org/2000/svg"
 width="55" height="50" viewBox="0 0 96.000000 96.000000"
 preserveAspectRatio="xMidYMid meet">

<g transform="translate(0.000000,96.000000) scale(0.100000,-0.100000)"
fill="#fa8e2b" stroke="none">
<path d="M331 804 c-25 -18 -51 -71 -51 -104 0 -37 42 -110 72 -126 27 -14 32
-14 54 1 29 19 41 46 50 113 13 98 -57 163 -125 116z"/>
<path d="M579 805 c-40 -22 -62 -77 -54 -134 15 -98 49 -140 99 -121 32 12 52
42 66 102 15 60 6 113 -25 144 -27 27 -49 29 -86 9z"/>
<path d="M162 545 c-42 -47 -49 -92 -24 -142 34 -65 90 -76 129 -24 17 23 36
107 29 129 -10 31 -56 72 -81 72 -14 0 -36 -14 -53 -35z"/>
<path d="M736 559 c-41 -32 -79 -115 -72 -154 14 -72 72 -78 128 -15 53 60 63
134 22 174 -21 22 -46 20 -78 -5z"/>
<path d="M339 360 c-54 -55 -99 -106 -99 -114 0 -31 24 -65 52 -75 23 -8 48
-7 102 6 61 14 83 14 162 3 106 -14 141 -5 157 43 11 35 -1 51 -64 82 -29 15
-61 43 -84 75 -80 109 -99 108 -226 -20z"/>
</g>

</svg>
