<svg width="29" height="37" viewBox="0 0 29 37" fill="none" xmlns="http://www.w3.org/2000/svg">
<path fill-rule="evenodd" clip-rule="evenodd" d="M14.5001 0.0717163C8.217 0.0717163 3.12256 4.9719 3.12256 11.0168C3.12256 12.5777 3.46943 14.0623 4.07993 15.4059L14.6943 32.3357L24.9202 15.4059C25.5491 14.0282 25.874 12.5312 25.8729 11.0168C25.8729 4.9719 20.7831 0.0717163 14.5001 0.0717163ZM14.5001 18.7798C13.5611 18.7783 12.6316 18.5918 11.7648 18.2308C10.898 17.8699 10.1108 17.3417 9.44827 16.6763C8.78572 16.011 8.26079 15.2216 7.9035 14.3532C7.54621 13.4849 7.36356 12.5547 7.366 11.6157C7.36417 10.677 7.54725 9.74719 7.90479 8.87926C8.26232 8.01133 8.7873 7.22233 9.44976 6.55729C10.1122 5.89226 10.8992 5.36421 11.7657 5.00331C12.6322 4.64241 13.5614 4.45572 14.5001 4.4539C16.3958 4.45819 18.2124 5.21493 19.5505 6.55783C20.8886 7.90073 21.6389 9.71994 21.6364 11.6157C21.6395 13.5119 20.8895 15.3317 19.5513 16.6751C18.2131 18.0185 16.3962 18.7756 14.5001 18.7798ZM19.0719 11.5232C19.0731 12.125 18.9557 12.7211 18.7265 13.2776C18.4972 13.834 18.1606 14.3398 17.7358 14.766C17.3111 15.1923 16.8065 15.5307 16.2509 15.7619C15.6952 15.9931 15.0995 16.1126 14.4977 16.1135C13.283 16.1105 12.1191 15.6253 11.2618 14.7646C10.4046 13.9038 9.92409 12.738 9.92593 11.5232C9.92502 10.9219 10.0426 10.3263 10.2718 9.77048C10.5011 9.21461 10.8376 8.70934 11.2621 8.28352C11.6866 7.8577 12.1909 7.51966 12.7461 7.28872C13.3012 7.05777 13.8965 6.93844 14.4977 6.93753C17.023 6.93753 19.0719 8.99334 19.0719 11.5232Z" fill="#FA8E2B"/>
<path fill-rule="evenodd" clip-rule="evenodd" d="M8.25404 27.3407C4.28348 28.1824 2.63467 29.2878 2.63467 30.5296C2.63467 32.3079 6.86886 34.7592 14.4654 34.7592C22.062 34.7592 26.2962 32.3079 26.2962 30.5296C26.2962 29.2924 24.6589 28.2194 20.7439 27.3407V25.4444C25.0567 26.2908 28.2687 27.9905 28.2687 30.5296C28.2687 34.1926 21.1555 36.9352 14.4654 36.9352C7.77536 36.9352 0.662109 34.1926 0.662109 30.5296C0.662109 27.9859 3.89498 26.2538 8.23092 25.4375L8.25404 27.3407Z" fill="#FA8E2B"/>
</svg>
