<svg width="116" height="124" viewBox="0 0 116 124" fill="none" xmlns="http://www.w3.org/2000/svg">
<path d="M35.6064 17.9169C36.4642 16.1074 39.1062 12.8831 42.8119 14.4623C46.4146 14.9559 50.0173 14.7091 51.8187 17.6701C54.3921 18.0814 59.6418 18.8545 60.0535 18.6571C60.4652 18.4597 60.2251 22.6874 60.0535 24.826C58.681 26.0597 55.1126 27.935 51.8187 25.5662" stroke="#56BED1"/>
<path d="M54.3809 26.9716C54.2029 28.2247 51.992 27.6216 50.0177 29.5146C52.7537 32.5129 53.5603 35.2265 54.2409 39.3848L61.5978 27.7874C61.6836 26.2246 62.8845 22.2108 67.0019 18.6575C68.2886 18.9043 69.6187 20.4234 68.546 25.5666C67.5166 30.5017 64.6859 31.2419 63.9139 30.9952C63.3134 32.0644 61.8552 37.0159 60.8258 48.2679C60.6543 49.9129 59.1274 53.351 54.3924 53.9432C54.6497 55.8349 54.6497 60.0626 52.591 61.8392C53.4488 67.5968 55.6276 79.1613 57.4804 79.3587C59.7965 79.6054 64.6859 78.6184 64.1712 84.047C63.2276 84.2937 60.0538 84.6392 54.9071 84.047C54.3924 83.718 53.5175 82.8132 54.1351 81.8262C53.2773 81.7439 51.4588 81.1353 51.047 79.3587C50.6353 77.5821 47.7874 71.0513 46.4149 68.0081C43.67 69.8998 37.8713 73.7327 36.6361 73.9301C37.1508 79.1119 34.8348 80.0989 33.0334 83.5535C38.6948 84.7872 43.996 81.5794 44.6136 83.5535C47.3585 86.021 49.0913 90.4132 34.0628 88.2418C29.8596 89.311 20.0121 90.7093 14.2478 87.7483C13.3042 87.9128 10.8509 87.6002 8.58635 85.034C7.12811 85.034 5.3439 86.0703 9.87304 90.2158C9.87305 90.956 9.61572 92.5353 8.58635 92.9301C7.29964 93.4236 10.9024 91.2028 3.43958 89.4755C1.2951 88.324 -1.39836 84.9846 4.98361 80.8392C5.84137 80.4279 8.22599 80.0496 10.9023 81.8262C9.87299 79.7699 9.46125 74.0288 16.0491 67.5146C22.6369 61.0003 28.5728 49.0081 30.7173 43.8263C32.004 39.796 34.2686 30.9458 33.0333 27.7874C31.7981 24.6289 34.2343 19.8913 35.6067 17.9173C36.4645 16.0255 39.1065 12.351 42.8122 14.3251C45.5194 14.3251 51.047 14.5718 52.0763 17.5328C54.3923 17.7796 59.2817 18.6575 60.3111 18.6575C61.3405 18.6575 60.5685 22.9346 60.0538 25.0731C58.6385 25.9082 56.2214 26.9951 54.3809 26.9716Z" fill="#5AC5D9"/>
<path d="M54.3924 26.8004C54.3924 28.2809 52.0764 27.5406 50.0177 29.5146C52.7537 32.5129 53.5603 35.2265 54.2409 39.3848M54.9071 43.8263C54.6594 42.1642 54.4565 40.702 54.2409 39.3848M54.2409 39.3848L61.5978 27.7874C61.6836 26.2246 62.8845 22.2108 67.0019 18.6575C68.2886 18.9043 69.6187 20.4234 68.546 25.5666C67.5166 30.5017 64.6859 31.2419 63.9139 30.9952C63.3134 32.0644 61.8552 37.0159 60.8258 48.2679C60.6543 49.9129 59.1274 53.351 54.3924 53.9432C54.6497 55.8349 54.6497 60.0626 52.591 61.8392C53.4488 67.5968 55.6276 79.1613 57.4804 79.3587C59.7965 79.6054 64.6859 78.6184 64.1712 84.047C63.2276 84.2937 60.0538 84.6392 54.9071 84.047C54.3924 83.718 53.5175 82.8132 54.1351 81.8262C53.2773 81.7439 51.4588 81.1353 51.047 79.3587C50.6353 77.5821 47.7874 71.0513 46.4149 68.0081C43.67 69.8998 37.8713 73.7327 36.6361 73.9301C37.1508 79.1119 34.8348 80.0989 33.0334 83.5535C38.6948 84.7872 43.996 81.5794 44.6136 83.5535C47.3585 86.021 49.0913 90.4132 34.0628 88.2418C29.8596 89.311 20.0121 90.7093 14.2478 87.7483C13.3042 87.9128 10.8509 87.6002 8.58635 85.034C7.12811 85.034 5.3439 86.0703 9.87304 90.2158C9.87305 90.956 9.61572 92.5353 8.58635 92.9301C7.29964 93.4236 10.9024 91.2028 3.43958 89.4755C1.2951 88.324 -1.39836 84.9846 4.98361 80.8392C5.84137 80.4279 8.22598 80.0496 10.9023 81.8262C9.87299 79.7699 9.46125 74.0288 16.0491 67.5146C22.6369 61.0003 28.5728 49.0081 30.7173 43.8263C32.004 39.796 34.2686 30.9458 33.0333 27.7874C31.7981 24.6289 34.2343 19.8913 35.6067 17.9173M35.6067 17.9173C35.2636 19.2333 34.7832 22.8523 35.6067 26.8004C36.4302 30.7484 40.7535 34.3674 42.8122 35.6835C44.0131 36.3415 46.7751 36.5718 48.2162 32.2289C49.6574 27.8861 45.9002 24.1683 43.8415 22.8523C42.2975 21.8653 39.3638 19.4965 39.9815 17.9173C40.5991 16.3381 42.1259 16.1078 42.8122 16.19C43.1553 15.7788 43.8415 15.3121 42.8122 14.3251M35.6067 17.9173C36.4645 16.0255 39.1065 12.351 42.8122 14.3251M42.8122 14.3251C45.5194 14.3251 51.047 14.5718 52.0763 17.5328C54.3923 17.7796 59.2817 18.6575 60.3111 18.6575C61.3405 18.6575 60.5685 22.9346 60.0538 25.0731C57.8235 26.3891 53.1057 28.3302 52.0763 25.5666" stroke="#56BED1"/>
<path d="M80.5792 7.31078C79.6329 7.36081 78.2009 6.69602 79.6112 3.6052C81.0523 0.446768 88.7896 0.808672 92.4781 1.38443C93.5932 2.37144 96.0808 4.64158 97.1101 5.82598C98.3968 7.30649 98.1395 10.5143 97.1101 11.2545C96.0808 11.9948 96.0808 15.4493 95.8235 16.4363C95.6176 17.226 97.2817 18.7394 98.1395 19.3974C100.027 18.9039 104.316 19.348 106.374 25.0727C107.489 27.458 109.72 33.6103 109.72 39.1376C109.72 44.6648 112.636 52.7912 114.094 56.1635L114.866 63.0726H114.094C114.18 66.1159 113.014 72.3011 107.661 72.6959C107.661 74.0119 106.889 76.9401 103.801 78.1245C103.286 79.934 102.051 83.553 101.228 83.553C100.404 83.553 100.884 85.8561 101.228 87.0076C98.6542 87.6656 92.6566 88.4881 89.1327 88.4881C84.5007 88.4881 76.5232 90.9556 78.8392 85.2803C80.7264 84.8691 85.2212 83.1089 88.1034 79.3583C88.0176 79.1115 87.7946 78.4206 87.5887 77.631C87.3314 76.644 72.6632 83.553 68.2884 78.1245C64.7887 73.7816 65.4577 72.0379 66.2297 71.7089L75.4939 63.0726L71.8912 56.1635C70.6903 52.9557 71.0677 46.935 82.1847 48.5142L89.1327 49.5012V45.5531C87.5029 46.6224 81.8759 44.1324 71.3765 25.1818C69.1943 23.4545 70.481 21.8363 70.481 16.2987C71.5103 15.8052 72.0765 18.7168 72.2823 19.5064C72.4882 20.2961 72.797 10.1298 75.1131 10.6234C75.9708 12.4329 77.707 17.374 76.2659 24.0857C77.0379 26.5532 80.126 32.0311 86.3021 34.2025C85.3585 31.4883 84.7067 25.5168 89.6475 23.3454C89.9047 22.5229 90.162 20.7298 89.1327 20.1376C87.8461 19.3974 84.5007 22.8519 81.1553 14.7091C80.4807 12.2837 79.4415 7.47454 80.5792 7.31078Z" fill="#5AC5D9" stroke="#56BED1"/>
<path d="M30.55 109.78C30.55 111.52 30.04 112.93 29.02 114.01C28 115.07 26.63 115.6 24.91 115.6C24.27 115.6 23.71 115.5 23.23 115.3C22.75 115.08 22.51 114.72 22.51 114.22C24.03 114.22 25.15 113.87 25.87 113.17C26.59 112.47 26.95 111.38 26.95 109.9C26.95 108.64 26.64 107.71 26.02 107.11C25.42 106.49 24.49 106.18 23.23 106.18C22.61 106.18 21.97 106.23 21.31 106.33V124H17.8V104.32C20.16 104.16 22.04 104.08 23.44 104.08C25.72 104.08 27.47 104.53 28.69 105.43C29.93 106.31 30.55 107.76 30.55 109.78ZM42.7035 104.2V106.42H36.1635V112.72H41.8035V114.94H36.1635V121.78H43.1235L42.9135 124H32.6535V104.2H42.7035ZM56.6078 104.2L56.3978 106.42H51.7778V124H48.2678V106.42H43.5578V104.2H56.6078ZM67.8988 104.2V106.42H61.3588V113.14H66.9988V115.36H61.3588V124H57.8488V104.2H67.8988ZM73.8686 104.2V124H70.3586V104.2H73.8686ZM90.1977 104.2L84.9177 124H80.4177L75.5277 104.2H79.0677L82.9977 121.75L86.8977 104.2H90.1977ZM101.883 104.2V106.42H95.3432V112.72H100.983V114.94H95.3432V121.78H102.303L102.093 124H91.8332V104.2H101.883Z" fill="#252525"/>
</svg>
