<svg width="116" height="32" viewBox="0 0 116 32" fill="none" xmlns="http://www.w3.org/2000/svg">
<path d="M10.8438 1.32031C11.8333 1.32031 12.862 1.47656 13.9297 1.78906C14.9974 2.10156 15.974 2.60938 16.8594 3.3125C17.7708 3.98958 18.513 4.88802 19.0859 6.00781C19.6589 7.10156 19.9453 8.44271 19.9453 10.0312C19.9453 11.4635 19.6719 12.8568 19.125 14.2109C18.6042 15.5651 17.849 16.8021 16.8594 17.9219C15.8958 19.0417 14.724 20.0052 13.3438 20.8125C11.9635 21.5938 10.4271 22.1276 8.73438 22.4141C8.73438 23.4818 8.77344 24.4062 8.85156 25.1875C8.8776 25.9167 8.90365 26.5417 8.92969 27.0625C8.98177 27.5573 9.02083 27.987 9.04688 28.3516C9.09896 28.7161 9.15104 29.0417 9.20312 29.3281C9.25521 29.6406 9.32031 29.9401 9.39844 30.2266C8.8776 30.6172 8.38281 30.9036 7.91406 31.0859C7.44531 31.2682 7.02865 31.3984 6.66406 31.4766C6.2474 31.5807 5.85677 31.6068 5.49219 31.5547C5.36198 31.2161 5.24479 30.8385 5.14062 30.4219C5.03646 30.0312 4.95833 29.5104 4.90625 28.8594C4.88021 28.2083 4.86719 27.388 4.86719 26.3984C4.86719 25.3828 4.89323 24.0938 4.94531 22.5312C4.73698 22.5052 4.51562 22.4922 4.28125 22.4922C4.04688 22.4661 3.82552 22.4271 3.61719 22.375C3.4349 21.9583 3.31771 21.5938 3.26562 21.2812C3.21354 20.9688 3.1875 20.7083 3.1875 20.5C3.1875 20.2396 3.21354 20.0312 3.26562 19.875C3.47396 19.901 3.68229 19.9271 3.89062 19.9531C4.09896 19.9531 4.29427 19.9531 4.47656 19.9531C4.6849 19.9792 4.88021 19.9922 5.0625 19.9922C5.11458 18.7943 5.16667 17.5573 5.21875 16.2812C5.29688 14.9792 5.34896 13.7161 5.375 12.4922C5.42708 11.2682 5.46615 10.0964 5.49219 8.97656C5.54427 7.83073 5.58333 6.8151 5.60938 5.92969C4.82812 6.45052 4.13802 7.1276 3.53906 7.96094C2.96615 8.79427 2.58854 9.75781 2.40625 10.8516C2.06771 10.7995 1.78125 10.6432 1.54688 10.3828C1.3125 10.0964 1.11719 9.8099 0.960938 9.52344C0.778646 9.1849 0.622396 8.80729 0.492188 8.39062C0.361979 7.89583 0.361979 7.40104 0.492188 6.90625C0.596354 6.38542 0.778646 5.90365 1.03906 5.46094C1.29948 4.99219 1.59896 4.58854 1.9375 4.25C2.27604 3.88542 2.60156 3.59896 2.91406 3.39062C3.48698 3.05208 4.0599 2.7526 4.63281 2.49219C5.20573 2.20573 5.85677 1.97135 6.58594 1.78906C6.8724 1.5026 7.1849 1.24219 7.52344 1.00781C7.88802 0.773438 8.23958 0.630208 8.57812 0.578125C8.99479 0.473958 9.22917 0.747396 9.28125 1.39844C9.51562 1.3724 9.76302 1.35938 10.0234 1.35938C10.2839 1.33333 10.5573 1.32031 10.8438 1.32031ZM8.73438 19.4844C9.4375 19.276 10.2057 18.9635 11.0391 18.5469C11.8724 18.1302 12.6536 17.5833 13.3828 16.9062C14.112 16.2031 14.724 15.3438 15.2188 14.3281C15.7135 13.3125 15.9609 12.0885 15.9609 10.6562C15.9609 9.5625 15.7656 8.63802 15.375 7.88281C15.0104 7.10156 14.5286 6.47656 13.9297 6.00781C13.3307 5.51302 12.6667 5.16146 11.9375 4.95312C11.2344 4.71875 10.5312 4.60156 9.82812 4.60156C9.69792 4.60156 9.56771 4.60156 9.4375 4.60156C9.30729 4.60156 9.17708 4.61458 9.04688 4.64062C8.96875 5.47396 8.92969 6.3724 8.92969 7.33594C8.92969 7.98698 8.91667 8.78125 8.89062 9.71875C8.86458 10.6302 8.83854 11.6198 8.8125 12.6875C8.78646 13.7552 8.76042 14.875 8.73438 16.0469C8.73438 17.2188 8.73438 18.3646 8.73438 19.4844ZM20.8438 6.32031C20.6875 6.16406 20.5573 5.98177 20.4531 5.77344C20.375 5.5651 20.3099 5.36979 20.2578 5.1875C20.1797 4.97917 20.1406 4.75781 20.1406 4.52344C20.1146 4.3151 20.1146 4.10677 20.1406 3.89844C20.1667 3.74219 20.1927 3.58594 20.2188 3.42969C20.2448 3.2474 20.3099 3.11719 20.4141 3.03906C20.6224 2.98698 20.8568 2.94792 21.1172 2.92188C21.4036 2.86979 21.6641 2.81771 21.8984 2.76562C22.1849 2.71354 22.4714 2.66146 22.7578 2.60938C22.862 2.45312 23.0703 2.29688 23.3828 2.14062C23.7214 1.95833 24.0729 1.80208 24.4375 1.67188C24.8281 1.54167 25.1927 1.45052 25.5312 1.39844C25.8698 1.32031 26.1042 1.32031 26.2344 1.39844V2.21875C26.9115 2.14062 27.6146 2.07552 28.3438 2.02344C29.0729 1.94531 29.8542 1.90625 30.6875 1.90625C31.7031 1.88021 32.6536 1.85417 33.5391 1.82812C34.2943 1.80208 35.0495 1.80208 35.8047 1.82812C36.5859 1.82812 37.1849 1.84115 37.6016 1.86719C37.8099 1.89323 37.9661 2.04948 38.0703 2.33594C38.2005 2.59635 38.2396 2.9349 38.1875 3.35156C38.1615 3.76823 38.0312 4.22396 37.7969 4.71875C37.5625 5.21354 37.1979 5.68229 36.7031 6.125C36.0781 5.99479 35.4271 5.89062 34.75 5.8125C34.0729 5.73438 33.4479 5.66927 32.875 5.61719C32.1979 5.5651 31.5469 5.55208 30.9219 5.57812C30.1146 5.57812 29.3203 5.60417 28.5391 5.65625C27.7578 5.68229 27.0026 5.72135 26.2734 5.77344C26.2995 7.04948 26.3125 8.50781 26.3125 10.1484C26.3385 11.763 26.3646 13.4036 26.3906 15.0703C26.7292 15.0443 27.0677 15.0182 27.4062 14.9922C27.7448 14.9661 28.0964 14.9401 28.4609 14.9141C29.3984 14.862 30.3099 14.8099 31.1953 14.7578C32.1068 14.7057 32.888 14.7318 33.5391 14.8359C34.2161 14.9141 34.724 15.1094 35.0625 15.4219C35.401 15.7344 35.4792 16.2292 35.2969 16.9062L34.75 18.7812C34.6979 18.651 34.5547 18.5469 34.3203 18.4688C34.112 18.3646 33.8646 18.2865 33.5781 18.2344C33.2656 18.1562 32.9141 18.0911 32.5234 18.0391C31.612 17.9349 30.6094 17.9219 29.5156 18C28.4219 18.0781 27.3802 18.1953 26.3906 18.3516V18.3906C26.4167 20.6823 26.4036 22.5833 26.3516 24.0938C26.3255 25.6042 26.2865 26.776 26.2344 27.6094C26.5729 27.5573 26.8984 27.5182 27.2109 27.4922C27.5495 27.4661 27.901 27.4271 28.2656 27.375C29.2031 27.2969 30.1797 27.2448 31.1953 27.2188C32.0547 27.1927 33.0052 27.1927 34.0469 27.2188C35.1146 27.2188 36.1432 27.2839 37.1328 27.4141C37.2891 27.6745 37.3411 28.013 37.2891 28.4297C37.237 28.8464 37.1458 29.25 37.0156 29.6406C36.8594 30.1094 36.6641 30.6042 36.4297 31.125C35.2578 30.9948 34.125 30.9036 33.0312 30.8516C31.9375 30.7995 30.9609 30.7604 30.1016 30.7344C29.0859 30.7083 28.1354 30.7083 27.25 30.7344C25.6354 30.6823 24.3594 30.7604 23.4219 30.9688C22.4844 31.2031 21.8203 31.3724 21.4297 31.4766C21.1693 31.5547 20.974 31.5156 20.8438 31.3594C20.7135 31.2031 20.5703 30.9427 20.4141 30.5781C20.2578 30.2396 20.2057 29.7578 20.2578 29.1328C20.2578 29.0807 20.2708 29.0026 20.2969 28.8984C20.3229 28.8203 20.401 28.7552 20.5312 28.7031C20.6875 28.651 20.9349 28.5859 21.2734 28.5078C21.612 28.4297 22.0286 28.3385 22.5234 28.2344C22.5755 27.1667 22.6146 25.8125 22.6406 24.1719C22.6667 22.5312 22.7057 20.8646 22.7578 19.1719C22.3151 19.0938 21.9245 18.7422 21.5859 18.1172C21.2474 17.4661 21.0911 16.75 21.1172 15.9688C21.2734 15.9167 21.4427 15.8776 21.625 15.8516C21.8333 15.8255 22.0286 15.7865 22.2109 15.7344C22.4193 15.6823 22.6276 15.6432 22.8359 15.6172C22.862 14.9401 22.875 14.3281 22.875 13.7812C22.875 13.2344 22.888 12.7526 22.9141 12.3359C22.9661 11.2422 22.9792 10.1615 22.9531 9.09375C22.9271 8 22.901 6.9974 22.875 6.08594C22.6406 6.11198 22.3932 6.13802 22.1328 6.16406C21.9245 6.1901 21.7031 6.21615 21.4688 6.24219C21.2344 6.26823 21.026 6.29427 20.8438 6.32031ZM37.6406 6.55469C37.5104 6.39844 37.4062 6.21615 37.3281 6.00781C37.25 5.79948 37.1849 5.59115 37.1328 5.38281C37.0807 5.14844 37.0417 4.91406 37.0156 4.67969V4.01562C37.0156 3.83333 37.0286 3.66406 37.0547 3.50781C37.0807 3.32552 37.1458 3.18229 37.25 3.07812C38.0573 2.86979 38.9297 2.71354 39.8672 2.60938C40.8047 2.47917 41.6901 2.36198 42.5234 2.25781C43.487 2.15365 44.4375 2.0625 45.375 1.98438C45.6354 1.80208 45.8698 1.67188 46.0781 1.59375C46.2865 1.51562 46.4557 1.51562 46.5859 1.59375C46.638 1.59375 46.6901 1.69792 46.7422 1.90625H46.8984C47.8359 1.88021 48.7344 1.85417 49.5938 1.82812C50.3229 1.80208 51.0391 1.80208 51.7422 1.82812C52.4714 1.82812 53.0312 1.84115 53.4219 1.86719C53.6302 1.89323 53.7865 2.04948 53.8906 2.33594C53.9948 2.6224 54.0208 2.98698 53.9688 3.42969C53.9427 3.8724 53.8255 4.35417 53.6172 4.875C53.4089 5.39583 53.0703 5.89062 52.6016 6.35938C52.0026 6.20312 51.3776 6.09896 50.7266 6.04688C50.0755 5.96875 49.4896 5.90365 48.9688 5.85156C48.3177 5.79948 47.7057 5.77344 47.1328 5.77344H46.9375C46.9635 6.8151 46.9766 7.97396 46.9766 9.25C46.9766 10.5 46.9635 11.776 46.9375 13.0781C46.9375 14.3542 46.9245 15.6172 46.8984 16.8672C46.8724 18.0911 46.8464 19.1849 46.8203 20.1484C46.8203 21.6849 46.8203 23.013 46.8203 24.1328C46.8203 25.2266 46.8594 26.1641 46.9375 26.9453C47.0156 27.7005 47.1328 28.3125 47.2891 28.7812C47.4453 29.25 47.6667 29.6276 47.9531 29.9141C47.9271 29.9401 47.849 30.0182 47.7188 30.1484C47.6146 30.3047 47.4583 30.4609 47.25 30.6172C47.0677 30.7734 46.8333 30.9167 46.5469 31.0469C46.2865 31.1771 45.987 31.2292 45.6484 31.2031C44.7891 31.1771 44.151 30.8906 43.7344 30.3438C43.3177 29.7969 43.0312 29.0286 42.875 28.0391C42.7188 27.0495 42.6536 25.8516 42.6797 24.4453C42.7318 23.0391 42.8099 21.4375 42.9141 19.6406C42.9922 18.4167 43.0573 17.1536 43.1094 15.8516C43.1875 14.5495 43.2526 13.2995 43.3047 12.1016C43.3828 10.8776 43.4479 9.74479 43.5 8.70312C43.5521 7.63542 43.6042 6.71094 43.6562 5.92969C43.0052 5.95573 42.3411 6.00781 41.6641 6.08594C41.0651 6.13802 40.4141 6.20312 39.7109 6.28125C39.0078 6.35938 38.3177 6.45052 37.6406 6.55469ZM53.7344 6.39844C53.5781 6.24219 53.4609 6.07292 53.3828 5.89062C53.3047 5.68229 53.2396 5.47396 53.1875 5.26562C53.1354 5.03125 53.0964 4.79688 53.0703 4.5625C53.0443 4.35417 53.0443 4.14583 53.0703 3.9375C53.0703 3.54688 53.1484 3.2474 53.3047 3.03906C53.5911 2.98698 53.9036 2.9349 54.2422 2.88281C54.5807 2.80469 54.9062 2.73958 55.2188 2.6875C55.5833 2.63542 55.9609 2.58333 56.3516 2.53125C56.5599 2.32292 56.8333 2.10156 57.1719 1.86719C57.5365 1.60677 57.9401 1.3724 58.3828 1.16406C58.7214 1.00781 58.9557 1.00781 59.0859 1.16406C59.2161 1.32031 59.3073 1.64583 59.3594 2.14062C60.0104 2.08854 60.6875 2.03646 61.3906 1.98438C62.0938 1.93229 62.8229 1.90625 63.5781 1.90625C64.5938 1.88021 65.5443 1.85417 66.4297 1.82812C67.1849 1.80208 67.9401 1.80208 68.6953 1.82812C69.4766 1.82812 70.0755 1.84115 70.4922 1.86719C70.7005 1.89323 70.8568 2.04948 70.9609 2.33594C71.0911 2.59635 71.1302 2.94792 71.0781 3.39062C71.0521 3.80729 70.9219 4.26302 70.6875 4.75781C70.4531 5.2526 70.1016 5.73438 69.6328 6.20312C69.0078 6.07292 68.3438 5.96875 67.6406 5.89062C66.9635 5.8125 66.3385 5.7474 65.7656 5.69531C65.0885 5.64323 64.4375 5.63021 63.8125 5.65625C63.0573 5.65625 62.3021 5.68229 61.5469 5.73438C60.7917 5.76042 60.0755 5.79948 59.3984 5.85156C59.3724 7.02344 59.3464 8.39062 59.3203 9.95312C59.3203 11.4896 59.3073 13.1953 59.2812 15.0703C59.6458 15.0182 59.9974 14.9922 60.3359 14.9922C60.6745 14.9661 61.026 14.9401 61.3906 14.9141C62.3281 14.862 63.2396 14.8099 64.125 14.7578C65.0104 14.7057 65.7786 14.7318 66.4297 14.8359C67.1068 14.9141 67.6146 15.1094 67.9531 15.4219C68.2917 15.7344 68.3698 16.2292 68.1875 16.9062L67.6406 18.7812C67.5885 18.651 67.4453 18.5469 67.2109 18.4688C67.0026 18.3646 66.7552 18.2865 66.4688 18.2344C66.1562 18.1562 65.8047 18.0911 65.4141 18.0391C64.5026 17.9349 63.5 17.9219 62.4062 18C61.3125 18.0781 60.2578 18.1953 59.2422 18.3516C59.2422 19.6536 59.2552 20.8906 59.2812 22.0625C59.3333 23.2083 59.3854 24.25 59.4375 25.1875C59.5156 26.125 59.5807 26.9323 59.6328 27.6094C59.6849 28.2865 59.724 28.7943 59.75 29.1328C59.776 29.3672 59.75 29.5495 59.6719 29.6797C59.5417 29.8359 59.3854 30.0182 59.2031 30.2266C59.0208 30.4349 58.7865 30.6432 58.5 30.8516C58.2135 31.0599 57.862 31.2292 57.4453 31.3594C57.0547 31.5156 56.599 31.6068 56.0781 31.6328C55.8438 31.6328 55.7266 31.5156 55.7266 31.2812V19.1719C55.2839 19.1458 54.8802 18.8073 54.5156 18.1562C54.151 17.5052 53.9818 16.776 54.0078 15.9688C54.1901 15.9167 54.3724 15.8776 54.5547 15.8516C54.763 15.8255 54.9583 15.7865 55.1406 15.7344C55.349 15.6823 55.5443 15.6432 55.7266 15.6172C55.7266 13.7422 55.7396 11.9974 55.7656 10.3828C55.7917 8.74219 55.8307 7.33594 55.8828 6.16406C55.6484 6.1901 55.401 6.21615 55.1406 6.24219C54.9323 6.26823 54.6979 6.29427 54.4375 6.32031C54.1771 6.34635 53.9427 6.3724 53.7344 6.39844ZM72.4844 5.57812C72.1198 5.65625 71.7682 5.7474 71.4297 5.85156C71.1432 5.95573 70.8177 6.07292 70.4531 6.20312C70.1146 6.30729 69.7891 6.4375 69.4766 6.59375C69.3724 6.20312 69.2682 5.77344 69.1641 5.30469C69.0859 4.83594 69.0729 4.39323 69.125 3.97656C69.1771 3.53385 69.3203 3.15625 69.5547 2.84375C69.8151 2.50521 70.2448 2.3099 70.8438 2.25781C71.4167 2.17969 72.0807 2.1276 72.8359 2.10156C73.5911 2.07552 74.3724 2.0625 75.1797 2.0625C76.013 2.0625 76.8594 2.08854 77.7188 2.14062C78.5781 2.16667 79.4245 2.23177 80.2578 2.33594C80.3099 2.7526 80.349 3.11719 80.375 3.42969C80.401 3.71615 80.4141 3.96354 80.4141 4.17188V4.79688C80.4141 4.95312 80.388 5.08333 80.3359 5.1875C80.2318 5.44792 80.0495 5.61719 79.7891 5.69531C79.5026 5.61719 79.1641 5.5651 78.7734 5.53906C78.4089 5.48698 78.0443 5.4349 77.6797 5.38281C77.263 5.33073 76.8333 5.29167 76.3906 5.26562C76.4427 6.17708 76.4818 7.50521 76.5078 9.25C76.5599 10.9688 76.5599 13.2344 76.5078 16.0469C76.4557 18.9115 76.4036 21.2552 76.3516 23.0781C76.3255 24.875 76.2995 26.2682 76.2734 27.2578C77.263 27.3359 77.9922 27.5052 78.4609 27.7656C78.9557 28 79.2812 28.2734 79.4375 28.5859C79.6198 28.9245 79.6849 29.2891 79.6328 29.6797C79.6068 30.0703 79.5807 30.4479 79.5547 30.8125C79.112 30.7083 78.6042 30.6302 78.0312 30.5781C77.4844 30.5521 76.9635 30.5391 76.4688 30.5391C75.8958 30.5391 75.3099 30.5651 74.7109 30.6172C74.0339 30.6693 73.3828 30.7474 72.7578 30.8516C72.237 30.9557 71.7161 31.0859 71.1953 31.2422C70.6745 31.3984 70.2839 31.6198 70.0234 31.9062C69.8151 31.5156 69.6589 31.099 69.5547 30.6562C69.4505 30.2917 69.3724 29.862 69.3203 29.3672C69.2682 28.8724 69.2812 28.3646 69.3594 27.8438C69.6458 27.7396 69.9714 27.6615 70.3359 27.6094C70.7005 27.5312 71.0391 27.4661 71.3516 27.4141C71.7161 27.362 72.0938 27.3229 72.4844 27.2969C72.5365 26.4635 72.6016 25.3047 72.6797 23.8203C72.7578 22.3099 72.8229 20.2917 72.875 17.7656C72.9271 14.5885 72.901 12.0104 72.7969 10.0312C72.6927 8.02604 72.5885 6.54167 72.4844 5.57812ZM82.9531 18C82.25 15.4219 81.7422 13.2995 81.4297 11.6328C81.1172 9.96615 80.8958 8.65104 80.7656 7.6875C80.6615 6.69792 80.6224 5.99479 80.6484 5.57812C80.6745 5.13542 80.6875 4.86198 80.6875 4.75781C80.6615 4.34115 80.7135 3.89844 80.8438 3.42969C81 2.96094 81.3646 2.57031 81.9375 2.25781C82.6146 1.8151 83.2396 1.56771 83.8125 1.51562C84.4115 1.4375 84.737 1.42448 84.7891 1.47656C84.6589 1.76302 84.5807 2.08854 84.5547 2.45312C84.5286 2.81771 84.5547 3.35156 84.6328 4.05469C84.7109 4.73177 84.8281 5.65625 84.9844 6.82812C85.1667 7.97396 85.401 9.4974 85.6875 11.3984C85.8958 12.8047 86.1172 14.1719 86.3516 15.5C86.612 16.8281 86.8594 18.0911 87.0938 19.2891C87.3542 20.4609 87.6016 21.5547 87.8359 22.5703C88.0703 23.5859 88.2917 24.4844 88.5 25.2656C88.6562 24.5885 88.8125 23.8073 88.9688 22.9219C89.151 22.0104 89.3333 21.0469 89.5156 20.0312C89.724 19.0156 89.9453 17.974 90.1797 16.9062C90.4401 15.8385 90.7135 14.7839 91 13.7422C91.2865 12.4661 91.599 11.1771 91.9375 9.875C92.224 8.75521 92.5495 7.55729 92.9141 6.28125C93.3047 4.97917 93.7214 3.78125 94.1641 2.6875C94.7891 2.32292 95.375 2.08854 95.9219 1.98438C96.4948 1.88021 96.9896 1.85417 97.4062 1.90625C97.875 1.95833 98.3177 2.0625 98.7344 2.21875C98.474 2.76562 98.2005 3.40365 97.9141 4.13281C97.6276 4.83594 97.3411 5.57812 97.0547 6.35938C96.7943 7.11458 96.5339 7.89583 96.2734 8.70312C96.013 9.51042 95.7656 10.2917 95.5312 11.0469C94.9844 12.8438 94.4375 14.6797 93.8906 16.5547C93.4479 18.1172 93.0182 19.7057 92.6016 21.3203C92.237 22.7005 91.8594 24.1849 91.4688 25.7734C91.1042 27.362 90.7786 28.8594 90.4922 30.2656C90.4922 30.3958 90.3359 30.5391 90.0234 30.6953C89.737 30.8516 89.3854 30.9818 88.9688 31.0859C88.5781 31.2161 88.1484 31.2943 87.6797 31.3203C87.237 31.3724 86.8464 31.3333 86.5078 31.2031C86.0391 30.0052 85.5964 28.651 85.1797 27.1406C84.763 25.6042 84.3854 24.1589 84.0469 22.8047C83.6562 21.2161 83.2917 19.6146 82.9531 18ZM98.0312 6.32031C97.875 6.16406 97.7448 5.98177 97.6406 5.77344C97.5625 5.5651 97.4974 5.36979 97.4453 5.1875C97.3672 4.97917 97.3281 4.75781 97.3281 4.52344C97.3021 4.3151 97.3021 4.10677 97.3281 3.89844C97.3542 3.74219 97.3802 3.58594 97.4062 3.42969C97.4323 3.2474 97.4974 3.11719 97.6016 3.03906C97.8099 2.98698 98.0443 2.94792 98.3047 2.92188C98.5911 2.86979 98.8516 2.81771 99.0859 2.76562C99.3724 2.71354 99.6589 2.66146 99.9453 2.60938C100.049 2.45312 100.258 2.29688 100.57 2.14062C100.909 1.95833 101.26 1.80208 101.625 1.67188C102.016 1.54167 102.38 1.45052 102.719 1.39844C103.057 1.32031 103.292 1.32031 103.422 1.39844V2.21875C104.099 2.14062 104.802 2.07552 105.531 2.02344C106.26 1.94531 107.042 1.90625 107.875 1.90625C108.891 1.88021 109.841 1.85417 110.727 1.82812C111.482 1.80208 112.237 1.80208 112.992 1.82812C113.773 1.82812 114.372 1.84115 114.789 1.86719C114.997 1.89323 115.154 2.04948 115.258 2.33594C115.388 2.59635 115.427 2.9349 115.375 3.35156C115.349 3.76823 115.219 4.22396 114.984 4.71875C114.75 5.21354 114.385 5.68229 113.891 6.125C113.266 5.99479 112.615 5.89062 111.938 5.8125C111.26 5.73438 110.635 5.66927 110.062 5.61719C109.385 5.5651 108.734 5.55208 108.109 5.57812C107.302 5.57812 106.508 5.60417 105.727 5.65625C104.945 5.68229 104.19 5.72135 103.461 5.77344C103.487 7.04948 103.5 8.50781 103.5 10.1484C103.526 11.763 103.552 13.4036 103.578 15.0703C103.917 15.0443 104.255 15.0182 104.594 14.9922C104.932 14.9661 105.284 14.9401 105.648 14.9141C106.586 14.862 107.497 14.8099 108.383 14.7578C109.294 14.7057 110.076 14.7318 110.727 14.8359C111.404 14.9141 111.911 15.1094 112.25 15.4219C112.589 15.7344 112.667 16.2292 112.484 16.9062L111.938 18.7812C111.885 18.651 111.742 18.5469 111.508 18.4688C111.299 18.3646 111.052 18.2865 110.766 18.2344C110.453 18.1562 110.102 18.0911 109.711 18.0391C108.799 17.9349 107.797 17.9219 106.703 18C105.609 18.0781 104.568 18.1953 103.578 18.3516V18.3906C103.604 20.6823 103.591 22.5833 103.539 24.0938C103.513 25.6042 103.474 26.776 103.422 27.6094C103.76 27.5573 104.086 27.5182 104.398 27.4922C104.737 27.4661 105.089 27.4271 105.453 27.375C106.391 27.2969 107.367 27.2448 108.383 27.2188C109.242 27.1927 110.193 27.1927 111.234 27.2188C112.302 27.2188 113.331 27.2839 114.32 27.4141C114.477 27.6745 114.529 28.013 114.477 28.4297C114.424 28.8464 114.333 29.25 114.203 29.6406C114.047 30.1094 113.852 30.6042 113.617 31.125C112.445 30.9948 111.312 30.9036 110.219 30.8516C109.125 30.7995 108.148 30.7604 107.289 30.7344C106.273 30.7083 105.323 30.7083 104.438 30.7344C102.823 30.6823 101.547 30.7604 100.609 30.9688C99.6719 31.2031 99.0078 31.3724 98.6172 31.4766C98.3568 31.5547 98.1615 31.5156 98.0312 31.3594C97.901 31.2031 97.7578 30.9427 97.6016 30.5781C97.4453 30.2396 97.3932 29.7578 97.4453 29.1328C97.4453 29.0807 97.4583 29.0026 97.4844 28.8984C97.5104 28.8203 97.5885 28.7552 97.7188 28.7031C97.875 28.651 98.1224 28.5859 98.4609 28.5078C98.7995 28.4297 99.2161 28.3385 99.7109 28.2344C99.763 27.1667 99.8021 25.8125 99.8281 24.1719C99.8542 22.5312 99.8932 20.8646 99.9453 19.1719C99.5026 19.0938 99.112 18.7422 98.7734 18.1172C98.4349 17.4661 98.2786 16.75 98.3047 15.9688C98.4609 15.9167 98.6302 15.8776 98.8125 15.8516C99.0208 15.8255 99.2161 15.7865 99.3984 15.7344C99.6068 15.6823 99.8151 15.6432 100.023 15.6172C100.049 14.9401 100.062 14.3281 100.062 13.7812C100.062 13.2344 100.076 12.7526 100.102 12.3359C100.154 11.2422 100.167 10.1615 100.141 9.09375C100.115 8 100.089 6.9974 100.062 6.08594C99.8281 6.11198 99.5807 6.13802 99.3203 6.16406C99.112 6.1901 98.8906 6.21615 98.6562 6.24219C98.4219 6.26823 98.2135 6.29427 98.0312 6.32031Z" fill="#252525"/>
</svg>
