<svg width="59" height="62" viewBox="0 0 59 62" fill="none" xmlns="http://www.w3.org/2000/svg">
<path d="M18.3037 9.45845C18.7326 8.55369 20.0536 6.94157 21.9064 7.73118C23.7078 7.97793 25.5092 7.85456 26.4098 9.33507C27.6965 9.5407 30.3214 9.92728 30.5272 9.82858C30.7331 9.72988 30.613 11.8437 30.5272 12.913C29.841 13.5299 28.0568 14.4675 26.4098 13.2831" stroke="#56BED1"/>
<path d="M27.6904 13.9858C27.6014 14.6124 26.496 14.3108 25.5088 15.2573C26.8768 16.7565 27.2801 18.1133 27.6204 20.1924L31.2989 14.3937C31.3418 13.6123 31.9423 11.6054 34.001 9.82878C34.6443 9.95216 35.3094 10.7117 34.773 13.2833C34.2583 15.7508 32.8429 16.121 32.4569 15.9976C32.1567 16.5322 31.4276 19.008 30.9129 24.6339C30.8271 25.4564 30.0637 27.1755 27.6962 27.4716C27.8249 28.4175 27.8249 30.5313 26.7955 31.4196C27.2244 34.2984 28.3138 40.0806 29.2402 40.1793C30.3982 40.3027 32.8429 39.8092 32.5856 42.5235C32.1138 42.6469 30.5269 42.8196 27.9535 42.5235C27.6962 42.359 27.2587 41.9066 27.5675 41.4131C27.1386 41.372 26.2294 41.0677 26.0235 40.1793C25.8176 39.291 24.3937 36.0257 23.7075 34.504C22.335 35.4499 19.4357 37.3664 18.8181 37.4651C19.0754 40.056 17.9174 40.5495 17.0167 42.2767C19.8474 42.8936 22.498 41.2897 22.8068 42.2767C24.1793 43.5105 25.0456 45.7066 17.5314 44.6209C15.4298 45.1555 10.5061 45.8547 7.62389 44.3741C7.1521 44.4564 5.92546 44.3001 4.79318 43.017C4.06405 43.017 3.17195 43.5352 5.43652 45.6079C5.43652 45.978 5.30786 46.7676 4.79318 46.965C4.14982 47.2118 5.95118 46.1014 2.21979 45.2378C1.14755 44.662 -0.199179 42.9923 2.9918 40.9196C3.42068 40.714 4.61299 40.5248 5.95117 41.4131C5.43649 40.385 5.23062 37.5144 8.52454 34.2573C11.8185 31.0002 14.7864 25.0041 15.8587 22.4132C16.502 20.398 17.6343 15.9729 17.0167 14.3937C16.3991 12.8145 17.6171 10.4457 18.3034 9.45865C18.7323 8.51277 20.0532 6.67554 21.9061 7.66255C23.2597 7.66255 26.0235 7.78592 26.5381 9.26644C27.6962 9.38982 30.1408 9.82878 30.6555 9.82878C31.1702 9.82878 30.7842 11.9673 30.5269 13.0366C29.8192 13.4541 28.6107 13.9976 27.6904 13.9858Z" fill="#5AC5D9"/>
<path d="M27.6962 13.9002C27.6962 14.6405 26.5382 14.2703 25.5088 15.2573C26.8768 16.7565 27.2801 18.1133 27.6204 20.1924M27.9535 22.4132C27.8297 21.5821 27.7282 20.851 27.6204 20.1924M27.6204 20.1924L31.2989 14.3937C31.3418 13.6123 31.9423 11.6054 34.001 9.82878C34.6443 9.95216 35.3094 10.7117 34.773 13.2833C34.2583 15.7508 32.8429 16.121 32.4569 15.9976C32.1567 16.5322 31.4276 19.008 30.9129 24.6339C30.8271 25.4564 30.0637 27.1755 27.6962 27.4716C27.8249 28.4175 27.8249 30.5313 26.7955 31.4196C27.2244 34.2984 28.3138 40.0806 29.2402 40.1793C30.3982 40.3027 32.8429 39.8092 32.5856 42.5235C32.1138 42.6469 30.5269 42.8196 27.9535 42.5235C27.6962 42.359 27.2587 41.9066 27.5675 41.4131C27.1386 41.372 26.2294 41.0677 26.0235 40.1793C25.8176 39.291 24.3937 36.0257 23.7075 34.504C22.335 35.4499 19.4357 37.3664 18.8181 37.4651C19.0754 40.056 17.9174 40.5495 17.0167 42.2767C19.8474 42.8936 22.498 41.2897 22.8068 42.2767C24.1793 43.5105 25.0456 45.7066 17.5314 44.6209C15.4298 45.1555 10.5061 45.8547 7.62389 44.3741C7.1521 44.4564 5.92546 44.3001 4.79318 43.017C4.06405 43.017 3.17195 43.5352 5.43652 45.6079C5.43652 45.978 5.30786 46.7676 4.79318 46.965C4.14982 47.2118 5.95118 46.1014 2.21979 45.2378C1.14755 44.662 -0.199179 42.9923 2.9918 40.9196C3.42068 40.714 4.61299 40.5248 5.95117 41.4131C5.43649 40.385 5.23062 37.5144 8.52454 34.2573C11.8185 31.0002 14.7864 25.0041 15.8587 22.4132C16.502 20.398 17.6343 15.9729 17.0167 14.3937C16.3991 12.8145 17.6171 10.4457 18.3034 9.45865M18.3034 9.45865C18.1318 10.1167 17.8916 11.9262 18.3034 13.9002C18.7151 15.8742 20.8767 17.6837 21.9061 18.3417C22.5065 18.6707 23.8876 18.7859 24.6081 16.6145C25.3287 14.4431 23.4501 12.5842 22.4208 11.9262C21.6487 11.4327 20.1819 10.2483 20.4907 9.45865C20.7995 8.66904 21.563 8.55389 21.9061 8.59502C22.0776 8.38939 22.4208 8.15606 21.9061 7.66255M18.3034 9.45865C18.7323 8.51277 20.0532 6.67554 21.9061 7.66255M21.9061 7.66255C23.2597 7.66255 26.0235 7.78592 26.5381 9.26644C27.6962 9.38982 30.1408 9.82878 30.6555 9.82878C31.1702 9.82878 30.7842 11.9673 30.5269 13.0366C29.4117 13.6946 27.0528 14.6651 26.5381 13.2833" stroke="#56BED1"/>
<path d="M40.7891 4.15539C40.316 4.18041 39.6 3.84801 40.3051 2.3026C41.0256 0.723384 44.8943 0.904336 46.7385 1.19221C47.2961 1.68572 48.5399 2.82079 49.0546 3.41299C49.6979 4.15324 49.5693 5.75714 49.0546 6.12727C48.5399 6.4974 48.5399 8.22466 48.4112 8.71817C48.3083 9.11297 49.1404 9.86968 49.5693 10.1987C50.5128 9.95193 52.6573 10.174 53.6866 13.0363C54.2442 14.229 55.3593 17.3052 55.3593 20.0688C55.3593 22.8324 56.8176 26.8956 57.5467 28.5817L57.9327 32.0363H57.5467C57.5896 33.5579 57.0063 36.6506 54.33 36.848C54.33 37.506 53.944 38.97 52.4 39.5622C52.1426 40.467 51.525 42.2765 51.1133 42.2765C50.7015 42.2765 50.9417 43.428 51.1133 44.0038C49.8266 44.3328 46.8278 44.744 45.0659 44.744C42.7499 44.744 38.7611 45.9778 39.9191 43.1401C40.8627 42.9345 43.1101 42.0544 44.5512 40.1791C44.5083 40.0557 44.3968 39.7103 44.2939 39.3155C44.1652 38.822 36.8311 42.2765 34.6437 39.5622C32.8938 37.3908 33.2284 36.519 33.6144 36.3545L38.2465 32.0363L36.4451 28.5817C35.8446 26.9779 36.0334 23.9675 41.5918 24.7571L45.0659 25.2506V23.2766C44.251 23.8112 41.4374 22.5662 36.1878 13.0909C35.0967 12.2272 35.74 11.4181 35.74 8.64933C36.2547 8.40258 36.5377 9.85842 36.6407 10.2532C36.7436 10.648 36.898 5.56492 38.056 5.81167C38.4849 6.71643 39.353 9.187 38.6325 12.5428C39.0185 13.7766 40.5625 16.5155 43.6505 17.6013C43.1788 16.2441 42.8528 13.2584 45.3232 12.1727C45.4519 11.7615 45.5805 10.8649 45.0659 10.5688C44.4226 10.1987 42.7499 11.926 41.0772 7.85454C40.7399 6.64187 40.2203 4.23727 40.7891 4.15539Z" fill="#5AC5D9" stroke="#56BED1"/>
<path d="M16.275 54.89C16.275 55.76 16.02 56.465 15.51 57.005C15 57.535 14.315 57.8 13.455 57.8C13.135 57.8 12.855 57.75 12.615 57.65C12.375 57.54 12.255 57.36 12.255 57.11C13.015 57.11 13.575 56.935 13.935 56.585C14.295 56.235 14.475 55.69 14.475 54.95C14.475 54.32 14.32 53.855 14.01 53.555C13.71 53.245 13.245 53.09 12.615 53.09C12.305 53.09 11.985 53.115 11.655 53.165V62H9.9V52.16C11.08 52.08 12.02 52.04 12.72 52.04C13.86 52.04 14.735 52.265 15.345 52.715C15.965 53.155 16.275 53.88 16.275 54.89ZM22.3518 52.1V53.21H19.0818V56.36H21.9018V57.47H19.0818V60.89H22.5618L22.4568 62H17.3268V52.1H22.3518ZM29.3039 52.1L29.1989 53.21H26.8889V62H25.1339V53.21H22.7789V52.1H29.3039ZM34.9494 52.1V53.21H31.6794V56.57H34.4994V57.68H31.6794V62H29.9244V52.1H34.9494ZM37.9343 52.1V62H36.1793V52.1H37.9343ZM46.0989 52.1L43.4589 62H41.2089L38.7639 52.1H40.5339L42.4989 60.875L44.4489 52.1H46.0989ZM51.9416 52.1V53.21H48.6716V56.36H51.4916V57.47H48.6716V60.89H52.1516L52.0466 62H46.9166V52.1H51.9416Z" fill="white"/>
</svg>
