<svg width="414" height="475" viewBox="0 0 414 475" fill="none" xmlns="http://www.w3.org/2000/svg">
<path d="M66 11.6963C27.6 21.4267 16 10.345 0 11.6964V109H414V11.6964C396.4 -1.27746 326.667 6.29058 310 11.6963C285.333 17.1021 218.8 24.6702 182 11.6963C136 -4.52093 114 -0.466612 66 11.6963Z" fill="#E7E3D7" stroke="#E7E3D7"/>
<rect y="83" width="414" height="392" fill="#E7E3D7"/>
<line y1="-1" x2="5.76572" y2="-1" transform="matrix(0.106218 0.994343 -0.994498 0.104759 43.708 325.832)" stroke="black" stroke-width="2"/>
<line y1="-1" x2="5.7646" y2="-1" transform="matrix(0.267188 0.963644 -0.963301 0.268424 41 313)" stroke="black" stroke-width="2"/>
<line y1="-1" x2="5.7646" y2="-1" transform="matrix(0.455323 0.890326 -0.889742 0.456465 36 300)" stroke="black" stroke-width="2"/>
<line y1="-1" x2="5.76154" y2="-1" transform="matrix(0.782029 0.623242 -0.619094 0.785317 26 290)" stroke="black" stroke-width="2"/>
<line y1="-1" x2="5.76154" y2="-1" transform="matrix(0.856785 0.515675 -0.511133 0.859502 16 283)" stroke="black" stroke-width="2"/>
<line y1="-1" x2="5.76154" y2="-1" transform="matrix(0.942861 0.333187 -0.328192 0.944611 3.99902 278)" stroke="black" stroke-width="2"/>
<ellipse cx="65.9621" cy="434.19" rx="5.0611" ry="5.00059" transform="rotate(15.8029 65.9621 434.19)" fill="black"/>
<line y1="-1" x2="5.7653" y2="-1" transform="matrix(-0.924407 -0.381408 0.383982 -0.92334 7.3291 447.275)" stroke="black" stroke-width="2"/>
<line y1="-1" x2="5.764" y2="-1" transform="matrix(-0.988156 -0.153452 0.150552 -0.988602 21.1748 451.26)" stroke="black" stroke-width="2"/>
<line y1="-1" x2="5.72397" y2="-1" transform="matrix(-0.824486 0.565882 -0.57557 -0.817752 32.2129 443.536)" stroke="black" stroke-width="2"/>
<line y1="-1" x2="5.72397" y2="-1" transform="matrix(-0.824486 0.565882 -0.57557 -0.817752 43.7197 434.982)" stroke="black" stroke-width="2"/>
<line y1="-1" x2="5.76352" y2="-1" transform="matrix(-0.991796 -0.12783 0.124317 -0.992243 56.7529 431.541)" stroke="black" stroke-width="2"/>
<line y1="-1" x2="5.44749" y2="-1" transform="matrix(-0.932477 0.36123 -0.0779646 -0.996956 14.0801 387.504)" stroke="black" stroke-width="2"/>
<line y1="-1" x2="5.44749" y2="-1" transform="matrix(-0.932477 0.36123 -0.0779646 -0.996956 27.0527 383.584)" stroke="black" stroke-width="2"/>
<line y1="-1" x2="5.44749" y2="-1" transform="matrix(-0.932477 0.36123 -0.0779646 -0.996956 39.6777 378.853)" stroke="black" stroke-width="2"/>
</svg>
