<svg width="70" height="70" viewBox="0 0 70 70" fill="none" xmlns="http://www.w3.org/2000/svg">
<g filter="url(#filter0_d)">
<path d="M45 14H25C20.5817 14 17 17.5817 17 22V42C17 46.4183 20.5822 50 25.0004 50H44.9978C49.416 50 53 46.4183 53 42V22C53 17.5817 49.4183 14 45 14Z" fill="white"/>
<path d="M45 14H25C20.5817 14 17 17.5817 17 22V42C17 46.4183 20.5822 50 25.0004 50H44.9978C49.416 50 53 46.4183 53 42V22C53 17.5817 49.4183 14 45 14Z" stroke="#FA8E2B" stroke-width="4"/>
</g>
<defs>
<filter id="filter0_d" x="0" y="0" width="70" height="70" filterUnits="userSpaceOnUse" color-interpolation-filters="sRGB">
<feFlood flood-opacity="0" result="BackgroundImageFix"/>
<feColorMatrix in="SourceAlpha" type="matrix" values="0 0 0 0 0 0 0 0 0 0 0 0 0 0 0 0 0 0 127 0"/>
<feOffset dy="3"/>
<feGaussianBlur stdDeviation="7.5"/>
<feColorMatrix type="matrix" values="0 0 0 0 0 0 0 0 0 0 0 0 0 0 0 0 0 0 0.28 0"/>
<feBlend mode="normal" in2="BackgroundImageFix" result="effect1_dropShadow"/>
<feBlend mode="normal" in="SourceGraphic" in2="effect1_dropShadow" result="shape"/>
</filter>
</defs>
</svg>
