<svg width="27" height="28" viewBox="0 0 27 28" fill="none" xmlns="http://www.w3.org/2000/svg">
<path d="M13.5003 12.0003C9.31267 12.0003 3.37537 19.6726 3.37537 24.5157C3.37537 26.6969 4.78916 28 7.15849 28C9.73401 28 11.4347 26.4325 13.5003 26.4325C15.5838 26.4325 17.2892 28 19.842 28C22.2114 28 23.6252 26.6969 23.6252 24.5157C23.6252 19.6726 17.6879 12.0003 13.5003 12.0003ZM5.73363 11.2121C5.18519 9.04655 3.4956 7.64407 1.95999 8.07906C0.424385 8.51406 -0.375587 10.6221 0.172844 12.7877C0.721276 14.9533 2.41087 16.3558 3.94648 15.9208C5.48209 15.4858 6.28206 13.3777 5.73363 11.2121ZM10.2012 9.91341C11.8328 9.40467 12.6491 6.79221 12.0248 4.0785C11.4004 1.36479 9.57159 -0.422053 7.94001 0.0866892C6.30842 0.595431 5.49211 3.20789 6.11647 5.9216C6.74084 8.6353 8.57018 10.4228 10.2012 9.91341ZM25.04 8.07969C23.5044 7.6447 21.8153 9.04717 21.2664 11.2128C20.7179 13.3784 21.5179 15.4864 23.0535 15.9214C24.5891 16.3564 26.2782 14.954 26.8272 12.7884C27.3756 10.6228 26.5756 8.51468 25.04 8.07969ZM16.7993 9.91341C18.4309 10.4222 20.2597 8.6353 20.8841 5.9216C21.5084 3.20789 20.6921 0.596056 19.0605 0.0866892C17.4289 -0.422678 15.6001 1.36479 14.9758 4.0785C14.3514 6.79221 15.1677 9.40467 16.7993 9.91341Z" fill="#FA8E2B"/>
</svg>
