<svg width="27" height="31" viewBox="0 0 27 31" fill="none" xmlns="http://www.w3.org/2000/svg">
<path d="M26.23 21.9057L20.3237 18.9994C20.0713 18.8759 19.7909 18.8499 19.5246 18.9253C19.2583 19.0006 19.0205 19.1733 18.8471 19.4172L16.2314 23.0864C12.1263 20.8642 8.82272 17.0711 6.88723 12.3579L10.083 9.35471C10.2959 9.15592 10.4465 8.88291 10.5122 8.57701C10.5779 8.2711 10.5549 7.94897 10.4469 7.65937L7.91557 0.878002C7.79697 0.565822 7.58722 0.310937 7.32248 0.157299C7.05774 0.00366021 6.75461 -0.0391022 6.46535 0.0363852L0.980876 1.48954C0.701996 1.56348 0.453178 1.74376 0.275033 2.00097C0.096888 2.25819 -6.42427e-05 2.57713 3.19376e-08 2.90575C3.19376e-08 18.4363 10.9637 31 24.4692 31C24.7555 31.0002 25.0334 30.889 25.2575 30.6844C25.4817 30.4799 25.6388 30.1941 25.7032 29.8738L26.9688 23.5768C27.0342 23.2431 26.9961 22.8937 26.8613 22.5886C26.7264 22.2836 26.5032 22.0421 26.23 21.9057Z" fill="#FA8E2B"/>
</svg>
