<svg id="svg" version="1.1" xmlns="http://www.w3.org/2000/svg" xmlns:xlink="http://www.w3.org/1999/xlink" width="400" height="400" viewBox="0, 0, 400,400"><g id="svgg"><path id="path0" d="M261.900 0.264 C 261.295 0.368,260.800 0.621,260.800 0.827 C 260.800 1.032,260.523 1.200,260.184 1.200 C 259.399 1.200,1.200 259.366,1.200 260.150 C 1.200 260.471,0.975 260.808,0.700 260.900 C -0.347 261.250,0.024 275.462,1.100 276.215 C 1.595 276.562,2.000 277.096,2.000 277.403 C 2.000 278.052,121.821 398.000,122.470 398.000 C 122.710 398.000,123.257 398.405,123.687 398.900 C 124.899 400.298,138.300 400.298,139.513 398.900 C 139.942 398.405,140.505 398.000,140.763 398.000 C 141.473 398.000,397.200 142.127,397.200 141.417 C 397.200 141.078,397.380 140.800,397.600 140.800 C 397.820 140.800,398.000 140.260,398.000 139.600 C 398.000 138.940,398.180 138.400,398.400 138.400 C 398.620 138.400,398.800 137.781,398.800 137.024 C 398.800 136.267,398.980 135.536,399.200 135.400 C 399.420 135.264,399.600 133.543,399.600 131.576 C 399.600 129.459,399.437 128.000,399.200 128.000 C 398.980 128.000,398.800 127.280,398.800 126.400 C 398.800 125.520,398.620 124.800,398.400 124.800 C 398.180 124.800,398.000 124.260,398.000 123.600 C 398.000 122.940,397.820 122.400,397.600 122.400 C 397.380 122.400,397.200 122.138,397.200 121.818 C 397.200 121.072,278.148 2.000,277.403 2.000 C 277.096 2.000,276.566 1.602,276.226 1.115 C 275.608 0.234,265.549 -0.364,261.900 0.264 M313.780 86.602 L 358.791 131.604 347.763 142.655 L 336.735 153.706 334.740 151.753 C 333.643 150.679,323.248 140.305,311.640 128.700 C 300.031 117.095,290.225 107.600,289.848 107.600 C 288.808 107.600,277.600 118.822,277.600 119.864 C 277.600 120.463,284.464 127.592,300.400 143.544 C 312.940 156.097,323.200 166.556,323.200 166.787 C 323.200 167.019,320.954 169.454,318.208 172.200 L 313.216 177.192 301.841 165.796 C 295.585 159.528,290.181 154.400,289.831 154.400 C 289.104 154.400,277.600 165.692,277.600 166.406 C 277.600 166.664,282.730 171.995,289.000 178.252 C 295.270 184.509,300.400 189.719,300.400 189.828 C 300.400 189.937,298.465 191.974,296.100 194.355 L 291.800 198.683 280.671 187.542 C 271.019 177.878,269.382 176.400,268.336 176.400 C 266.984 176.400,256.000 186.947,256.000 188.245 C 256.000 188.608,261.040 193.948,267.200 200.113 C 273.360 206.278,278.400 211.483,278.400 211.680 C 278.400 212.199,268.878 221.600,268.352 221.600 C 268.109 221.600,262.534 216.245,255.962 209.700 C 249.391 203.155,243.787 197.597,243.508 197.348 C 243.228 197.100,239.556 193.410,235.347 189.148 C 223.063 176.712,222.721 176.399,221.382 176.407 C 219.964 176.416,209.200 186.904,209.200 188.278 C 209.200 188.775,217.258 197.123,231.416 211.292 L 253.633 233.527 248.493 238.796 L 243.354 244.064 231.777 232.439 C 225.410 226.045,220.065 220.811,219.899 220.807 C 219.482 220.797,207.600 232.746,207.600 233.175 C 207.600 233.366,212.799 238.735,219.154 245.105 L 230.707 256.689 227.054 260.312 C 220.150 267.159,220.472 266.897,219.671 266.319 C 218.752 265.655,216.000 262.590,216.000 262.229 C 216.000 262.079,214.920 260.896,213.600 259.600 C 212.280 258.304,211.200 257.050,211.200 256.812 C 211.200 256.575,210.120 255.323,208.800 254.032 C 207.480 252.740,206.400 251.481,206.400 251.233 C 206.400 250.986,205.412 249.752,204.205 248.492 C 202.998 247.231,202.008 246.052,202.005 245.871 C 201.995 245.229,200.843 244.400,199.960 244.400 C 198.613 244.400,188.000 255.267,188.000 256.647 C 188.000 257.451,190.337 259.999,199.000 268.640 C 205.050 274.674,210.000 279.790,210.000 280.009 C 210.000 280.229,207.743 282.665,204.984 285.424 L 199.967 290.441 195.784 286.211 C 193.483 283.885,191.600 281.816,191.600 281.612 C 191.600 281.409,186.920 276.571,181.200 270.861 C 175.480 265.151,170.800 260.294,170.800 260.068 C 170.800 259.745,164.315 253.145,156.186 245.196 C 155.738 244.758,155.196 244.400,154.981 244.400 C 154.252 244.400,142.800 256.303,142.803 257.058 C 142.805 257.494,147.162 262.136,153.391 268.336 C 159.213 274.131,163.936 279.010,163.888 279.178 C 163.840 279.346,168.477 284.182,174.194 289.924 C 179.911 295.666,184.658 300.597,184.744 300.882 C 184.830 301.167,185.339 301.872,185.875 302.448 L 186.850 303.496 181.678 308.751 L 176.506 314.006 172.953 310.344 C 166.602 303.800,160.000 297.172,160.000 297.342 C 160.000 297.433,158.619 296.089,156.931 294.354 C 152.978 290.293,153.336 290.208,146.772 296.772 C 140.208 303.336,140.293 302.978,144.354 306.931 C 146.089 308.619,147.433 310.000,147.342 310.000 C 147.173 310.000,153.803 316.605,160.327 322.937 L 163.972 326.473 147.187 343.237 C 137.956 352.456,130.234 360.000,130.029 360.000 C 129.529 360.000,40.000 270.443,40.000 269.943 C 40.000 269.386,267.698 41.655,268.285 41.625 C 268.551 41.611,289.024 61.851,313.780 86.602 " stroke="none" fill="#fc8c2c" fill-rule="evenodd"></path><path id="path1" d="" stroke="none" fill="#1008c2c" fill-rule="evenodd"></path><path id="path2" d="" stroke="none" fill="#1008c2c" fill-rule="evenodd"></path><path id="path3" d="" stroke="none" fill="#1008c2c" fill-rule="evenodd"></path><path id="path4" d="" stroke="none" fill="#1008c2c" fill-rule="evenodd"></path></g></svg>